<?xml version="1.0" encoding="iso-8859-1"?>
<!-- Uploaded to: SVG Repo, www.svgrepo.com, Generator: SVG Repo Mixer Tools -->
<!DOCTYPE svg PUBLIC "-//W3C//DTD SVG 1.1//EN" "http://www.w3.org/Graphics/SVG/1.1/DTD/svg11.dtd">
<svg fill="#000000" version="1.1" id="Capa_1" xmlns="http://www.w3.org/2000/svg" xmlns:xlink="http://www.w3.org/1999/xlink" 
	 width="800px" height="800px" viewBox="0 0 30.754 30.754"
	 xml:space="preserve">
<g>
	<g>
		<rect x="11.917" y="16.007" width="2.552" height="0.3"/>
		<rect x="11.917" y="15.252" width="3.148" height="0.298"/>
		<rect x="11.917" y="16.88" width="1.574" height="0.298"/>
		<rect x="11.917" y="12.965" width="1.886" height="1.027"/>
		<circle cx="14.854" cy="17.447" r="0.833"/>
		<polygon points="14.854,18.7 15.528,19.555 15.851,18.708 16.749,18.591 16.072,17.736 		"/>
		<polygon points="12.71,18.122 13.557,18.443 13.673,19.341 14.527,18.665 13.564,17.448 		"/>
		<path d="M12.851,18.447h-1.543v-1.813l0.729-1.879h2.434v-0.298h-2.552v0.146l-0.61-0.54v-2.404h3.184l-0.005,1.293h1.373v4.606
			l0.253-0.181l0.117,0.146V12.58h-0.004l0.008-0.005l-1.371-1.277v-0.01h-3.927v2.447L6.254,9.593L1.849,9.395l-0.34,10.261
			l0.326-0.006l0.317,5.838L1.779,29.67H1.675v1.084h3.208h0.08h3.208V29.67h-0.56l0.02-4.771l-0.754-5.326l0.191,0.006
			l-0.189-5.924l4.058,2.854v2.311h2.375l-0.026-0.198L12.851,18.447z M14.86,11.802l0.836,0.778h-0.841L14.86,11.802z M4.926,29.67
			H4.883H4.331l0.327-4.458l-0.075-4.128l0.49,4.236L4.926,29.67z"/>
		<path d="M19.391,1.251v0.713h0.463v1.641h-0.252v1.389h1.18v-1.39h-0.379v-1.64h0.757v2.315l0.228,0.072
			c-0.145,0.381-0.234,0.79-0.234,1.223c0,1.916,1.558,3.471,3.471,3.471c1.912,0,3.468-1.555,3.468-3.471
			c0-0.431-0.089-0.839-0.231-1.221l0.252-0.074V1.964h1.558V1.251H19.391z"/>
		<polygon points="22.083,9.558 16.75,14.765 17.233,16.521 22.374,12.686 22.083,20.128 23.022,20.128 22.743,25.316 
			22.977,29.617 22.084,29.617 22.084,30.754 26.209,30.754 26.209,29.617 26.016,29.617 25.582,25.316 26.106,20.128 
			26.852,20.128 26.852,9.558 23.44,9.558 		"/>
		<path d="M4.556,8.176C4.73,8.207,4.91,8.223,5.092,8.23C5.13,8.232,5.167,8.242,5.206,8.242c0.005,0,0.01-0.002,0.015-0.002
			c0.007,0,0.013,0.002,0.02,0.002c0.008,0,0.016-0.002,0.023-0.002c0.007,0,0.016,0.002,0.023,0.002
			c2.239,0,4.057-1.816,4.057-4.058c0-0.259-0.036-0.507-0.087-0.751C8.929,1.486,7.246,0,5.206,0C2.93,0,1.084,1.845,1.084,4.12
			C1.084,6.174,2.59,7.862,4.556,8.176z"/>
	</g>
</g>
</svg>