<svg width="55" height="55" viewBox="0 0 55 55" fill="none" xmlns="http://www.w3.org/2000/svg">
<path d="M0 0H45C50.5228 0 55 4.47715 55 10V55H20C8.95431 55 0 46.0457 0 35V0Z" fill="#D5FF40"/>
<circle cx="27.5" cy="31.5" r="3" stroke="#1C274D" stroke-width="1.5"/>
<path d="M27.5 34.7597L25.2371 36.9292C24.9131 37.2399 24.751 37.3952 24.6138 37.449C24.3011 37.5715 23.9543 37.4666 23.7898 37.1999C23.7176 37.0829 23.6951 36.8718 23.6501 36.4495C23.6247 36.2111 23.612 36.0919 23.5735 35.9921C23.4871 35.7686 23.3058 35.5947 23.0727 35.512C22.9685 35.475 22.8442 35.4629 22.5955 35.4385C22.1551 35.3954 21.9349 35.3738 21.8128 35.3046C21.5346 35.1469 21.4253 34.8144 21.5531 34.5146C21.6091 34.383 21.7712 34.2277 22.0952 33.917L23.5735 32.4998L24.6138 31.4595" stroke="#1C274D" stroke-width="1.5"/>
<path d="M27.5 34.7597L29.7629 36.9291C30.0869 37.2398 30.249 37.3952 30.3862 37.4489C30.6989 37.5714 31.0457 37.4666 31.2102 37.1999C31.2824 37.0828 31.3049 36.8717 31.3499 36.4495C31.3753 36.2111 31.388 36.0919 31.4265 35.9921C31.5129 35.7686 31.6942 35.5947 31.9273 35.512C32.0315 35.475 32.1558 35.4628 32.4045 35.4385C32.8449 35.3953 33.0651 35.3738 33.1872 35.3046C33.4654 35.1469 33.5747 34.8143 33.4469 34.5146C33.3909 34.383 33.2288 34.2277 32.9048 33.917L31.4265 32.4998L30.5 31.5732" stroke="#1C274D" stroke-width="1.5"/>
<path d="M32.8197 33.4957C34.7921 33.4748 35.8915 33.3512 36.6213 32.6213C37.5 31.7426 37.5 30.3284 37.5 27.5V23.5C37.5 20.6716 37.5 19.2574 36.6213 18.3787C35.7426 17.5 34.3284 17.5 31.5 17.5L23.5 17.5C20.6716 17.5 19.2574 17.5 18.3787 18.3787C17.5 19.2574 17.5 20.6716 17.5 23.5L17.5 27.5C17.5 30.3284 17.5 31.7426 18.3787 32.6213C19.1471 33.3897 20.325 33.4862 22.5 33.4983" stroke="#1C274D" stroke-width="1.5"/>
<path d="M24.5 21.5H30.5" stroke="#1C274D" stroke-width="1.5" stroke-linecap="round"/>
<path d="M22.5 25H32.5" stroke="#1C274D" stroke-width="1.5" stroke-linecap="round"/>
</svg>
