<svg width="18" height="18" viewBox="0 0 18 18" fill="none" xmlns="http://www.w3.org/2000/svg">
<path d="M17.9919 18.0002V17.9994H17.9964V11.3979C17.9964 8.16841 17.3012 5.68066 13.5257 5.68066C11.7107 5.68066 10.4927 6.67666 9.99542 7.62091H9.94292V5.98216H6.36316V17.9994H10.0907V12.0489C10.0907 10.4822 10.3877 8.96716 12.3279 8.96716C14.2397 8.96716 14.2682 10.7552 14.2682 12.1494V18.0002H17.9919Z" fill="white"/>
<path d="M0.293457 5.98242H4.02546V17.9997H0.293457V5.98242Z" fill="white"/>
<path d="M2.15796 0C0.96471 0 -0.00354004 0.96825 -0.00354004 2.1615C-0.00354004 3.35475 0.96471 4.34325 2.15796 4.34325C3.35121 4.34325 4.31946 3.35475 4.31946 2.1615C4.31871 0.96825 3.35046 0 2.15796 0V0Z" fill="white"/>
</svg>
