<svg width="18" height="18" viewBox="0 0 18 18" fill="none" xmlns="http://www.w3.org/2000/svg">
<path fill-rule="evenodd" clip-rule="evenodd" d="M16.0392 3.38548C16.8101 3.59312 17.4181 4.20094 17.6256 4.97204C18.0112 6.38048 17.9964 9.31629 17.9964 9.31629C17.9964 9.31629 17.9964 12.2371 17.6257 13.6457C17.4181 14.4167 16.8103 15.0246 16.0392 15.2321C14.6306 15.6029 8.99642 15.6029 8.99642 15.6029C8.99642 15.6029 3.37694 15.6029 1.95367 15.2174C1.18257 15.0098 0.57475 14.4018 0.36711 13.6309C-0.00354004 12.2371 -0.00354004 9.30146 -0.00354004 9.30146C-0.00354004 9.30146 -0.00354004 6.38048 0.36711 4.97204C0.574613 4.20108 1.1974 3.57829 1.95353 3.37079C3.36211 3 8.99629 3 8.99629 3C8.99629 3 14.6306 3 16.0392 3.38548ZM11.8878 9.30154L7.20251 12.0001V6.60303L11.8878 9.30154Z" fill="white"/>
</svg>
